<svg width="138" height="73" viewBox="0 0 138 73" fill="none" xmlns="http://www.w3.org/2000/svg">
<path d="M29.5 15H16C14.5 15 11.5 15.8 11.5 19C11.5 23 15.5 23 16 23C16.4 23 23.5 23 27 23C28.5 23 29.5 24.5 29.5 27.5C29.5 31 27.5 31.5 26.5 31.5C26.1 31.5 10.1667 31.8333 2 32M43 23L53 42.5H36.5C34.1667 42.8333 29.5 44.9 29.5 50.5C29.5 57.5 35.5 58.5 36.5 58.5C37.3 58.5 46.8333 58.5 51.5 58.5M51.5 58.5L58 71M51.5 58.5L47.5 50.5H37M44 15.0002C42.5 15.0002 35 15.2327 35 22.5C35 31 40.5 31.5 44 31.5C48.5 31.5 52 28.5 52 22.5C52 17.2345 47 15.0002 44 15.0002Z" stroke="#CAC5C9" stroke-width="3" stroke-linecap="round" stroke-linejoin="round"/>
<path d="M58 60.5L66 45.5L73.5 60" stroke="#CAC5C9" stroke-width="3" stroke-linecap="round" stroke-linejoin="round"/>
<path d="M80 60.5V43L89.5 58.5L98.5 43L99 60.5" stroke="#CAC5C9" stroke-width="3" stroke-linecap="round" stroke-linejoin="round"/>
<path d="M124.5 42.5H107V59H124" stroke="#CAC5C9" stroke-width="3" stroke-linecap="round" stroke-linejoin="round"/>
<path d="M116 50.5H136" stroke="#CAC5C9" stroke-width="3" stroke-linecap="round" stroke-linejoin="round"/>
<path d="M81.5 14V33.5" stroke="#CAC5C9" stroke-width="3" stroke-linecap="round" stroke-linejoin="round"/>
<path d="M58 13.5V25.5C58 27.6667 59.6 32 66 32C72.4 32 74.3333 27.6667 74.5 25.5V2" stroke="#CAC5C9" stroke-width="3" stroke-linecap="round" stroke-linejoin="round"/>
<path d="M89.5 31.5V15.5H104C106.5 15.5 111.5 17.1 111.5 23.5C111.5 29.9 106.5 31.5 104 31.5H89.5Z" stroke="#CAC5C9" stroke-width="3" stroke-linecap="round" stroke-linejoin="round"/>
</svg>
