<svg width="68" height="68" viewBox="0 0 68 68" fill="none" xmlns="http://www.w3.org/2000/svg">
<path d="M49.4275 24.4318C47.8479 23.8567 46.1785 23.5679 44.4975 23.5789C39.0575 23.5789 35.2183 26.3216 35.19 30.2514C35.156 33.1414 37.9213 34.7677 40.0095 35.7367C42.1543 36.7284 42.8712 37.3518 42.8655 38.2443C42.8513 39.5958 41.1513 40.2078 39.5732 40.2078C37.4028 40.2078 36.2128 39.9046 34.3853 39.1453L33.7082 38.8307L32.9403 43.3584C34.2607 43.9109 36.6407 44.3841 39.1028 44.4209C44.8857 44.4209 48.6653 41.6981 48.7107 37.5104C48.756 35.2069 47.2657 33.4587 44.1178 32.0194C42.2082 31.0844 41.0182 30.4582 41.0182 29.5091C41.0182 28.6704 42.0353 27.7751 44.1603 27.7751C45.5735 27.7412 46.978 28.0047 48.2828 28.5486L48.7928 28.7781L49.5607 24.4034L49.4275 24.4318ZM63.546 23.9501H59.296C57.9728 23.9501 56.984 24.3099 56.4032 25.6246L48.229 44.1376H54.0118L55.1678 41.1059L62.2228 41.1116C62.3957 41.8199 62.9028 44.1376 62.9028 44.1376H68L63.546 23.9501ZM27.37 23.7801H32.8752L29.4327 43.9789H23.9247L27.37 23.7744V23.7801ZM13.3762 34.9122L13.9485 37.7172L19.3347 23.9501H25.1685L16.4957 44.1092H10.676L5.916 27.0356C5.83923 26.7542 5.65644 26.5135 5.406 26.3641C3.69402 25.4748 1.87808 24.8019 0 24.3609L0.0708334 23.9359H8.942C10.1433 23.9813 11.1123 24.3609 11.4438 25.6472L13.3762 34.9207V34.9122ZM56.7488 36.9721L58.9447 31.3224C58.9163 31.3791 59.398 30.1551 59.6757 29.3957L60.0525 31.1383L61.3247 36.9664H56.7488V36.9721Z" fill="#CAC5C9"/>
</svg>
